<svg width="20" height="20" viewBox="0 0 20 20" fill="none" xmlns="http://www.w3.org/2000/svg">
<path d="M0.328335 6.64101H4.47433V20H0.328335V6.64101ZM2.40308 4.81456C3.72687 4.81456 4.80615 3.73688 4.80615 2.40728C4.80615 2.09115 4.744 1.77812 4.62323 1.48605C4.50247 1.19399 4.32546 0.928611 4.10231 0.705075C3.87916 0.481539 3.61425 0.30422 3.3227 0.183243C3.03114 0.0622656 2.71866 0 2.40308 0C2.08751 0 1.77502 0.0622656 1.48347 0.183243C1.19191 0.30422 0.926998 0.481539 0.703852 0.705075C0.480707 0.928611 0.303697 1.19399 0.182932 1.48605C0.062166 1.77812 8.47461e-06 2.09115 8.48126e-06 2.40728C-0.00348436 3.73688 1.07231 4.81456 2.40308 4.81456ZM11.2155 13.3905C11.2155 11.648 11.5473 9.96151 13.7024 9.96151C15.8261 9.96151 15.8575 11.9524 15.8575 13.5024V20H20V12.6732C20 9.07628 19.2246 6.30861 15.0297 6.30861C13.0143 6.30861 11.6626 7.41777 11.1072 8.46746H11.0513V6.64101H7.07301V20H11.2155V13.3905Z" fill="#F0F0F0"/>
</svg>
