<svg width="89" height="64" viewBox="0 0 89 64" fill="none" xmlns="http://www.w3.org/2000/svg">
<path d="M48.6194 8C53.5006 8 57.4575 11.8381 57.4575 16.5726C57.4575 21.3072 53.5006 25.2294 48.6194 25.2294H35.9079V35.0615H32.9119V22.3234H42.0649H48.6194C51.8459 22.3234 54.4615 19.7023 54.4615 16.5726C54.4615 13.443 51.8459 10.906 48.6194 10.906H41.9875H28.996V39.094H41.9875H54.1619C57.3826 39.094 60.004 36.557 60.004 33.4274C60.004 31.5475 59.0603 29.8814 57.6073 28.8505L59.3023 26.453C61.5411 28.0082 63 30.5525 63 33.4274C63 38.1619 59.0431 42 54.1619 42H27.4981H26V8H48.6194Z" fill="#F0F0F0"/>
<path d="M4 56.8767V50.1233H5.75271C6.22139 50.1233 6.63228 50.1884 6.98539 50.3186C7.3385 50.442 7.61136 50.6476 7.80396 50.9354C8.00299 51.2163 8.1025 51.6001 8.1025 52.0866C8.1025 52.5526 8.0062 52.9364 7.81359 53.2379C7.62099 53.5394 7.35134 53.7655 7.00465 53.9163C6.65796 54.0671 6.25349 54.1424 5.79123 54.1424H4.71264V56.8767H4ZM4.71264 53.5154H5.6853C6.26312 53.5154 6.69006 53.4023 6.96613 53.1762C7.24862 52.9432 7.38986 52.58 7.38986 52.0866C7.38986 51.5795 7.2422 51.2301 6.94687 51.0382C6.65796 50.8395 6.2246 50.7401 5.64678 50.7401H4.71264V53.5154Z" fill="#F0F0F0"/>
<path d="M13.1538 57C12.6274 57 12.1619 56.8561 11.7574 56.5683C11.3529 56.2805 11.0351 55.8727 10.804 55.3451C10.5793 54.8174 10.467 54.1938 10.467 53.4743C10.467 52.7548 10.5793 52.138 10.804 51.6241C11.0351 51.1033 11.3529 50.7024 11.7574 50.4214C12.1619 50.1405 12.6274 50 13.1538 50C13.6738 50 14.1361 50.1405 14.5406 50.4214C14.945 50.7024 15.2596 51.1033 15.4843 51.6241C15.7155 52.138 15.831 52.7548 15.831 53.4743C15.831 54.1938 15.7155 54.8174 15.4843 55.3451C15.2596 55.8727 14.945 56.2805 14.5406 56.5683C14.1361 56.8561 13.6738 57 13.1538 57ZM13.1538 56.3319C13.539 56.3319 13.8761 56.2154 14.165 55.9824C14.4603 55.7425 14.6882 55.4102 14.8487 54.9853C15.0092 54.5536 15.0895 54.0499 15.0895 53.4743C15.0895 52.8987 15.0092 52.4019 14.8487 51.9838C14.6882 51.5658 14.4603 51.2438 14.165 51.0176C13.8761 50.7846 13.539 50.6681 13.1538 50.6681C12.7622 50.6681 12.4187 50.7846 12.1234 51.0176C11.8345 51.2438 11.6098 51.5658 11.4492 51.9838C11.2887 52.4019 11.2085 52.8987 11.2085 53.4743C11.2085 54.0499 11.2887 54.5536 11.4492 54.9853C11.6098 55.4102 11.8345 55.7425 12.1234 55.9824C12.4187 56.2154 12.7622 56.3319 13.1538 56.3319Z" fill="#F0F0F0"/>
<path d="M18.6636 56.8767V50.1233H19.3762V56.2291H22.169V56.8767H18.6636Z" fill="#F0F0F0"/>
<path d="M24.7446 56.8767V50.1233H25.4572V56.8767H24.7446Z" fill="#F0F0F0"/>
<path d="M28.6625 56.8767V50.1233H29.3945L31.7828 54.5022L32.4761 55.8899H32.5147C32.4954 55.5472 32.4729 55.1977 32.4473 54.8414C32.428 54.4782 32.4184 54.1253 32.4184 53.7827V50.1233H33.0925V56.8767H32.3606L29.9723 52.4978L29.2789 51.1101H29.2404C29.266 51.4459 29.2885 51.7885 29.3078 52.138C29.327 52.4807 29.3367 52.8267 29.3367 53.1762V56.8767H28.6625Z" fill="#F0F0F0"/>
<path d="M35.4572 56.8767L37.6241 50.1233H38.4137L40.5709 56.8767H39.8198L38.6738 53.0529C38.5582 52.6691 38.4458 52.2922 38.3367 51.9222C38.234 51.5453 38.128 51.1581 38.0189 50.7606H37.9804C37.8841 51.1581 37.7813 51.5453 37.6722 51.9222C37.5695 52.2922 37.4571 52.6691 37.3351 53.0529L36.1795 56.8767H35.4572ZM36.5551 54.7489V54.1424H39.4538V54.7489H36.5551Z" fill="#F0F0F0"/>
<path d="M46.3131 56.8767V50.1233H48.1428C48.573 50.1233 48.9485 50.1816 49.2696 50.2981C49.597 50.4077 49.8506 50.5859 50.0303 50.8326C50.2101 51.0724 50.3 51.3877 50.3 51.7783C50.3 52.114 50.2197 52.4156 50.0592 52.6828C49.8987 52.9501 49.6644 53.1351 49.3562 53.2379V53.279C49.7479 53.3544 50.0624 53.5291 50.3 53.8032C50.544 54.0705 50.6659 54.4371 50.6659 54.9031C50.6659 55.3417 50.5664 55.7083 50.3674 56.0029C50.1684 56.2976 49.8891 56.5169 49.5296 56.6608C49.17 56.8047 48.7559 56.8767 48.2873 56.8767H46.3131ZM47.0257 56.2702H48.1717C48.7367 56.2702 49.1765 56.1571 49.491 55.931C49.8056 55.7048 49.9629 55.3554 49.9629 54.8825C49.9629 54.4508 49.8088 54.1322 49.5007 53.9266C49.1925 53.7141 48.7495 53.6079 48.1717 53.6079H47.0257V56.2702ZM47.0257 53.022H47.9984C48.5633 53.022 48.971 52.9192 49.2214 52.7137C49.4718 52.5081 49.597 52.2271 49.597 51.8708C49.597 51.4528 49.4654 51.1581 49.2021 50.9868C48.9389 50.8155 48.5505 50.7298 48.0369 50.7298H47.0257V53.022Z" fill="#F0F0F0"/>
<path d="M52.5435 56.8767L54.7103 50.1233H55.5L57.6571 56.8767H56.906L55.76 53.0529C55.6444 52.6691 55.5321 52.2922 55.4229 51.9222C55.3202 51.5453 55.2143 51.1581 55.1051 50.7606H55.0666C54.9703 51.1581 54.8676 51.5453 54.7584 51.9222C54.6557 52.2922 54.5434 52.6691 54.4214 53.0529L53.2657 56.8767H52.5435ZM53.6413 54.7489V54.1424H56.54V54.7489H53.6413Z" fill="#F0F0F0"/>
<path d="M61.7506 57C61.3076 57 60.8999 56.9075 60.5276 56.7225C60.1552 56.5374 59.831 56.2942 59.5549 55.9927L59.9883 55.4684C60.2194 55.7288 60.4858 55.9378 60.7876 56.0954C61.0958 56.2531 61.42 56.3319 61.7602 56.3319C62.1968 56.3319 62.5371 56.2256 62.7811 56.0132C63.025 55.7939 63.147 55.5095 63.147 55.1601C63.147 54.9202 63.0989 54.7283 63.0026 54.5844C62.9063 54.4337 62.7778 54.3103 62.6173 54.2144C62.4568 54.1116 62.2739 54.0122 62.0684 53.9163L61.1535 53.4846C60.9609 53.3955 60.7651 53.279 60.5661 53.1351C60.3671 52.9912 60.2001 52.8096 60.0653 52.5903C59.9369 52.371 59.8727 52.0935 59.8727 51.7577C59.8727 51.4219 59.9562 51.1238 60.1231 50.8634C60.29 50.5962 60.5211 50.3872 60.8165 50.2364C61.1118 50.0788 61.4457 50 61.818 50C62.1968 50 62.5435 50.0788 62.8581 50.2364C63.1791 50.394 63.4455 50.5928 63.6574 50.8326L63.2722 51.326C63.086 51.1204 62.8709 50.9594 62.627 50.8429C62.3894 50.7264 62.1198 50.6681 61.818 50.6681C61.4521 50.6681 61.1535 50.7641 60.9224 50.9559C60.6977 51.141 60.5854 51.3945 60.5854 51.7166C60.5854 51.9427 60.6399 52.1278 60.7491 52.2717C60.8582 52.4156 60.993 52.5355 61.1535 52.6314C61.3205 52.7205 61.4842 52.8027 61.6447 52.8781L62.5596 53.3098C62.8099 53.4195 63.0314 53.5497 63.2241 53.7004C63.4167 53.8512 63.5707 54.0396 63.6863 54.2658C63.8083 54.4919 63.8693 54.7729 63.8693 55.1087C63.8693 55.4582 63.7826 55.7768 63.6093 56.0646C63.4423 56.3524 63.1984 56.582 62.8774 56.7533C62.5628 56.9178 62.1872 57 61.7506 57Z" fill="#F0F0F0"/>
<path d="M68.8797 57C68.3532 57 67.8877 56.8561 67.4833 56.5683C67.0788 56.2805 66.761 55.8727 66.5299 55.3451C66.3052 54.8174 66.1928 54.1938 66.1928 53.4743C66.1928 52.7548 66.3052 52.138 66.5299 51.6241C66.761 51.1033 67.0788 50.7024 67.4833 50.4214C67.8877 50.1405 68.3532 50 68.8797 50C69.3997 50 69.8619 50.1405 70.2664 50.4214C70.6709 50.7024 70.9855 51.1033 71.2102 51.6241C71.4413 52.138 71.5569 52.7548 71.5569 53.4743C71.5569 54.1938 71.4413 54.8174 71.2102 55.3451C70.9855 55.8727 70.6709 56.2805 70.2664 56.5683C69.8619 56.8561 69.3997 57 68.8797 57ZM68.8797 56.3319C69.2649 56.3319 69.6019 56.2154 69.8908 55.9824C70.1862 55.7425 70.4141 55.4102 70.5746 54.9853C70.7351 54.5536 70.8154 54.0499 70.8154 53.4743C70.8154 52.8987 70.7351 52.4019 70.5746 51.9838C70.4141 51.5658 70.1862 51.2438 69.8908 51.0176C69.6019 50.7846 69.2649 50.6681 68.8797 50.6681C68.488 50.6681 68.1446 50.7846 67.8492 51.0176C67.5603 51.2438 67.3356 51.5658 67.1751 51.9838C67.0146 52.4019 66.9343 52.8987 66.9343 53.4743C66.9343 54.0499 67.0146 54.5536 67.1751 54.9853C67.3356 55.4102 67.5603 55.7425 67.8492 55.9824C68.1446 56.2154 68.488 56.3319 68.8797 56.3319Z" fill="#F0F0F0"/>
<path d="M75.5547 56.8767L73.5131 50.1233H74.2739L75.3332 53.8443C75.4488 54.2487 75.5515 54.6256 75.6414 54.975C75.7313 55.3177 75.834 55.6877 75.9496 56.0852H75.9881C76.1101 55.6877 76.216 55.3177 76.3059 54.975C76.4022 54.6256 76.5049 54.2487 76.6141 53.8443L77.6734 50.1233H78.3957L76.3733 56.8767H75.5547Z" fill="#F0F0F0"/>
<path d="M79.8863 56.8767L82.0531 50.1233H82.8428L85 56.8767H84.2488L83.1028 53.0529C82.9873 52.6691 82.8749 52.2922 82.7658 51.9222C82.6631 51.5453 82.5571 51.1581 82.448 50.7606H82.4095C82.3131 51.1581 82.2104 51.5453 82.1013 51.9222C81.9986 52.2922 81.8862 52.6691 81.7642 53.0529L80.6086 56.8767H79.8863ZM80.9842 54.7489V54.1424H83.8829V54.7489H80.9842Z" fill="#F0F0F0"/>
</svg>
