<svg width="38" height="35" viewBox="0 0 38 35" fill="none" xmlns="http://www.w3.org/2000/svg">
<path d="M23.1082 0C27.9761 0 31.9224 3.94625 31.9224 8.81419C31.9224 13.6821 27.9761 17.6284 23.1082 17.6284V17.7148H10.4309V27.824H7.44305V14.727H16.5713L23.1082 14.6405C26.326 14.6405 28.9345 12.032 28.9345 8.81419C28.9345 5.5964 26.326 2.98786 23.1082 2.98786H16.4941H3.53767V31.9701H16.4941H28.6357C31.8535 31.9701 34.462 29.3616 34.462 26.1438C34.462 24.2109 33.5208 22.4979 32.0717 21.438L33.7622 18.9729C35.995 20.572 37.4499 23.188 37.4499 26.1438C37.4499 31.0117 33.5037 34.958 28.6357 34.958H2.04388H0.549805V0H23.1082Z" fill="#F0F0F0"/>
</svg>
