<svg width="20" height="21" viewBox="0 0 20 21" fill="none" xmlns="http://www.w3.org/2000/svg">
<path d="M10 0.5C9.5752 0.5 9.23077 0.844379 9.23077 1.26923V9.73077H0.769231C0.344426 9.73077 0 10.0751 0 10.5C0 10.9249 0.344426 11.2692 0.769231 11.2692H9.23077V19.7308C9.23077 20.1556 9.5752 20.5 10 20.5C10.4248 20.5 10.7692 20.1556 10.7692 19.7308V11.2692H19.2308C19.6556 11.2692 20 10.9249 20 10.5C20 10.0751 19.6556 9.73077 19.2308 9.73077H10.7692V1.26923C10.7692 0.844379 10.4248 0.5 10 0.5Z" fill="#F0F0F0"/>
</svg>
